<svg xmlns="http://www.w3.org/2000/svg" width="800" height="450">
  <defs>
    <linearGradient id="sky" x1="0%" y1="0%" x2="0%" y2="100%">
      <stop offset="0%" stop-color="#87CEEB" />
      <stop offset="70%" stop-color="#ADD8E6" />
      <stop offset="100%" stop-color="#FFFFFF" />
    </linearGradient>
  </defs>
  <rect x="0" y="0" width="800" height="450" fill="url(#sky)" />
  <rect x="50" y="30" width="40" height="366" fill="#003820" opacity="1" />
  <rect x="55" y="40" width="3" height="2" fill="#4FD1C5" />
  <rect x="60" y="60" width="3" height="2" fill="#4FD1C5" />
  <rect x="65" y="80" width="3" height="2" fill="#0A2A25" />
  <rect x="70" y="100" width="3" height="2" fill="#4FD1C5" />
  <line x1="70" y1="30" x2="70" y2="20" stroke="#004530" stroke-width="2" />
  <rect x="150" y="247" width="30" height="149" fill="#002818" opacity="0.8" />
  <rect x="155" y="260" width="2" height="3" fill="#4FD1C5" />
  <rect x="160" y="280" width="2" height="3" fill="#0A2A25" />
  <rect x="165" y="300" width="2" height="3" fill="#4FD1C5" />
  <rect x="250" y="60" width="50" height="336" fill="#003820" opacity="1" />
  <rect x="255" y="80" width="3" height="2" fill="#4FD1C5" />
  <rect x="260" y="120" width="3" height="2" fill="#4FD1C5" />
  <rect x="265" y="160" width="3" height="2" fill="#0A2A25" />
  <rect x="270" y="200" width="3" height="2" fill="#4FD1C5" />
  <rect x="275" y="240" width="3" height="2" fill="#4FD1C5" />
  <line x1="270" y1="60" x2="270" y2="40" stroke="#004530" stroke-width="2" />
  <rect x="350" y="200" width="40" height="196" fill="#002818" opacity="0.8" />
  <rect x="355" y="220" width="2" height="3" fill="#4FD1C5" />
  <rect x="360" y="250" width="2" height="3" fill="#0A2A25" />
  <rect x="365" y="280" width="2" height="3" fill="#4FD1C5" />
  <rect x="450" y="315" width="30" height="81" fill="#001810" opacity="0.6" />
  <rect x="455" y="330" width="2" height="3" fill="#4FD1C5" />
  <rect x="460" y="350" width="2" height="3" fill="#0A2A25" />
  <rect x="550" y="40" width="50" height="356" fill="#003820" opacity="1" />
  <rect x="555" y="60" width="3" height="2" fill="#4FD1C5" />
  <rect x="560" y="100" width="3" height="2" fill="#4FD1C5" />
  <rect x="565" y="140" width="3" height="2" fill="#0A2A25" />
  <rect x="570" y="180" width="3" height="2" fill="#4FD1C5" />
  <rect x="575" y="220" width="3" height="2" fill="#4FD1C5" />
  <line x1="570" y1="40" x2="570" y2="20" stroke="#004530" stroke-width="2" />
  <rect x="650" y="180" width="40" height="216" fill="#002818" opacity="0.8" />
  <rect x="655" y="200" width="2" height="3" fill="#4FD1C5" />
  <rect x="660" y="230" width="2" height="3" fill="#0A2A25" />
  <rect x="665" y="260" width="2" height="3" fill="#4FD1C5" />
  <rect x="750" y="280" width="30" height="116" fill="#001810" opacity="0.6" />
  <rect x="755" y="300" width="2" height="3" fill="#4FD1C5" />
  <rect x="760" y="320" width="2" height="3" fill="#0A2A25" />
  <rect x="0" y="396" width="800" height="54" fill="#000808" />
</svg>