<svg xmlns="http://www.w3.org/2000/svg" width="800" height="450">
  <defs>
    <linearGradient id="sky" x1="0%" y1="0%" x2="0%" y2="100%">
      <stop offset="0%" stop-color="#03055B" />
      <stop offset="50%" stop-color="#1A034D" />
      <stop offset="100%" stop-color="#2B0064" />
    </linearGradient>
  </defs>
  <rect x="0" y="0" width="800" height="450" fill="url(#sky)" />
  <circle cx="700" cy="50" r="30" fill="#FFE0A0" />
  <circle cx="100" cy="300" r="2" fill="#FFFFFF" />
  <circle cx="300" cy="200" r="3" fill="#FFFFFF" />
  <circle cx="500" cy="400" r="1" fill="#FFFFFF" />
  <circle cx="200" cy="100" r="2" fill="#FFFFFF" />
  <circle cx="600" cy="250" r="2" fill="#FFFFFF" />
  <rect x="10" y="50" width="40" height="346" fill="#0A0025" opacity="0.6" />
  <rect x="20" y="320" width="20" height="76" fill="#0A0025" opacity="0.6" />
  <rect x="60" y="30" width="30" height="366" fill="#150035" opacity="0.8" />
  <rect x="100" y="40" width="50" height="356" fill="#200045" />
  <rect x="120" y="260" width="20" height="136" fill="#0A0025" opacity="0.6" />
  <rect x="160" y="20" width="40" height="376" fill="#150035" opacity="0.8" />
  <rect x="200" y="60" width="30" height="336" fill="#200045" />
  <rect x="240" y="80" width="20" height="316" fill="#0A0025" opacity="0.6" />
  <rect x="260" y="100" width="40" height="296" fill="#150035" opacity="0.8" />
  <rect x="300" y="120" width="50" height="276" fill="#200045" />
  <rect x="320" y="140" width="30" height="256" fill="#0A0025" opacity="0.6" />
  <rect x="360" y="160" width="20" height="236" fill="#150035" opacity="0.8" />
  <rect x="380" y="180" width="40" height="216" fill="#200045" />
  <rect x="420" y="200" width="30" height="196" fill="#0A0025" opacity="0.6" />
  <rect x="460" y="220" width="20" height="176" fill="#150035" opacity="0.8" />
  <rect x="480" y="240" width="40" height="156" fill="#200045" />
  <rect x="520" y="260" width="30" height="136" fill="#0A0025" opacity="0.6" />
  <rect x="560" y="280" width="20" height="116" fill="#150035" opacity="0.8" />
  <rect x="580" y="300" width="40" height="96" fill="#200045" />
  <rect x="620" y="320" width="30" height="76" fill="#0A0025" opacity="0.6" />
  <rect x="660" y="340" width="20" height="56" fill="#150035" opacity="0.8" />
  <rect x="680" y="360" width="40" height="36" fill="#200045" />
  <rect x="10" y="40" width="3" height="2" fill="#FF9900" />
  <rect x="15" y="50" width="3" height="2" fill="#FF9900" />
  <rect x="20" y="60" width="3" height="2" fill="#FF9900" />
  <rect x="25" y="70" width="3" height="2" fill="#3A1F00" />
  <rect x="30" y="80" width="3" height="2" fill="#FF9900" />
  <rect x="35" y="90" width="3" height="2" fill="#FF9900" />
  <rect x="40" y="100" width="3" height="2" fill="#3A1F00" />
  <rect x="60" y="30" width="3" height="2" fill="#FF9900" />
  <rect x="65" y="40" width="3" height="2" fill="#FF9900" />
  <rect x="70" y="50" width="3" height="2" fill="#FF9900" />
  <rect x="75" y="60" width="3" height="2" fill="#3A1F00" />
  <rect x="100" y="40" width="3" height="2" fill="#FF9900" />
  <rect x="105" y="50" width="3" height="2" fill="#FF9900" />
  <rect x="110" y="60" width="3" height="2" fill="#FF9900" />
  <rect x="115" y="70" width="3" height="2" fill="#3A1F00" />
  <rect x="160" y="20" width="3" height="2" fill="#FF9900" />
  <rect x="165" y="30" width="3" height="2" fill="#FF9900" />
  <rect x="170" y="40" width="3" height="2" fill="#FF9900" />
  <rect x="175" y="50" width="3" height="2" fill="#3A1F00" />
  <rect x="200" y="60" width="3" height="2" fill="#FF9900" />
  <rect x="205" y="70" width="3" height="2" fill="#FF9900" />
  <rect x="210" y="80" width="3" height="2" fill="#FF9900" />
  <rect x="215" y="90" width="3" height="2" fill="#3A1F00" />
  <line x1="10" y1="20" x2="10" y2="10" stroke="#300055" stroke-width="2" />
  <line x1="60" y1="10" x2="60" y2="0" stroke="#300055" stroke-width="2" />
  <line x1="160" y1="10" x2="160" y2="0" stroke="#300055" stroke-width="2" />
  <line x1="200" y1="20" x2="200" y2="10" stroke="#300055" stroke-width="2" />
  <rect x="0" y="396" width="800" height="54" fill="#050010" />
</svg>