<svg xmlns="http://www.w3.org/2000/svg" width="800" height="450">
  <defs>
    <linearGradient id="sky" x1="0%" y1="0%" x2="0%" y2="100%">
      <stop offset="0%" stop-color="#CC4400"/>
      <stop offset="50%" stop-color="#6B0080"/>
      <stop offset="100%" stop-color="#0A0030"/>
    </linearGradient>
  </defs>
  <rect x="0" y="0" width="800" height="450" fill="url(#sky)"/>
  <rect x="0" y="396" width="800" height="54" fill="#050010"/>
  <rect x="10" y="60" width="40" height="336" fill="#200045"/>
  <rect x="15" y="70" width="5" height="3" fill="#FF9900"/>
  <rect x="20" y="80" width="5" height="3" fill="#FF9900"/>
  <rect x="25" y="90" width="5" height="3" fill="#3A1F00"/>
  <rect x="30" y="100" width="5" height="3" fill="#FF9900"/>
  <line x1="35" y1="60" x2="35" y2="50" stroke="#300055" stroke-width="2"/>
  <rect x="70" y="120" width="30" height="276" fill="#150035"/>
  <rect x="75" y="130" width="3" height="2" fill="#FF9900"/>
  <rect x="80" y="140" width="3" height="2" fill="#FF9900"/>
  <rect x="85" y="150" width="3" height="2" fill="#3A1F00"/>
  <rect x="90" y="160" width="3" height="2" fill="#FF9900"/>
  <rect x="130" y="200" width="20" height="196" fill="#0A0025"/>
  <rect x="135" y="210" width="2" height="2" fill="#FF9900"/>
  <rect x="140" y="220" width="2" height="2" fill="#FF9900"/>
  <rect x="190" y="250" width="40" height="146" fill="#200045"/>
  <rect x="195" y="260" width="5" height="3" fill="#FF9900"/>
  <rect x="200" y="270" width="5" height="3" fill="#FF9900"/>
  <rect x="205" y="280" width="5" height="3" fill="#3A1F00"/>
  <rect x="210" y="290" width="5" height="3" fill="#FF9900"/>
  <line x1="215" y1="250" x2="215" y2="240" stroke="#300055" stroke-width="2"/>
  <rect x="260" y="180" width="30" height="216" fill="#150035"/>
  <rect x="265" y="190" width="3" height="2" fill="#FF9900"/>
  <rect x="270" y="200" width="3" height="2" fill="#FF9900"/>
  <rect x="275" y="210" width="3" height="2" fill="#3A1F00"/>
  <rect x="330" y="230" width="20" height="166" fill="#0A0025"/>
  <rect x="335" y="240" width="2" height="2" fill="#FF9900"/>
  <rect x="380" y="280" width="40" height="116" fill="#200045"/>
  <rect x="385" y="290" width="5" height="3" fill="#FF9900"/>
  <rect x="390" y="300" width="5" height="3" fill="#FF9900"/>
  <rect x="395" y="310" width="5" height="3" fill="#3A1F00"/>
  <line x1="400" y1="280" x2="400" y2="270" stroke="#300055" stroke-width="2"/>
  <rect x="440" y="300" width="30" height="96" fill="#150035"/>
  <rect x="445" y="310" width="3" height="2" fill="#FF9900"/>
  <rect x="450" y="320" width="3" height="2" fill="#FF9900"/>
  <rect x="500" y="250" width="20" height="146" fill="#0A0025"/>
  <rect x="505" y="260" width="2" height="2" fill="#FF9900"/>
  <rect x="510" y="270" width="2" height="2" fill="#FF9900"/>
  <rect x="550" y="220" width="40" height="176" fill="#200045"/>
  <rect x="555" y="230" width="5" height="3" fill="#FF9900"/>
  <rect x="560" y="240" width="5" height="3" fill="#FF9900"/>
  <rect x="565" y="250" width="5" height="3" fill="#3A1F00"/>
  <line x1="570" y1="220" x2="570" y2="210" stroke="#300055" stroke-width="2"/>
  <rect x="620" y="270" width="30" height="126" fill="#150035"/>
  <rect x="625" y="280" width="3" height="2" fill="#FF9900"/>
  <rect x="630" y="290" width="3" height="2" fill="#FF9900"/>
  <rect x="680" y="300" width="20" height="96" fill="#0A0025"/>
  <rect x="685" y="310" width="2" height="2" fill="#FF9900"/>
  <rect x="730" y="280" width="40" height="116" fill="#200045"/>
  <rect x="735" y="290" width="5" height="3" fill="#FF9900"/>
  <rect x="740" y="300" width="5" height="3" fill="#FF9900"/>
  <rect x="745" y="310" width="5" height="3" fill="#3A1F00"/>
  <line x1="750" y1="280" x2="750" y2="270" stroke="#300055" stroke-width="2"/>
  <rect x="780" y="320" width="20" height="76" fill="#150035"/>
  <rect x="785" y="330" width="3" height="2" fill="#FF9900"/>
</svg>