<svg xmlns="http://www.w3.org/2000/svg" width="800" height="500">
  <rect width="800" height="500" fill="#000B1E"/>
  
  <!-- Background stars -->
  <circle cx="120" cy="80" r="0.8" fill="#FFFFFF" opacity="0.3"/>
  <circle cx="170" cy="110" r="1.1" fill="#FFFFFF" opacity="0.4"/>
  <circle cx="230" cy="140" r="0.9" fill="#FFFFFF" opacity="0.2"/>
  <circle cx="290" cy="160" r="1.2" fill="#FFFFFF" opacity="0.5"/>
  <circle cx="340" cy="190" r="0.7" fill="#FFFFFF" opacity="0.3"/>
  <circle cx="390" cy="220" r="1.0" fill="#FFFFFF" opacity="0.4"/>
  <circle cx="450" cy="250" r="0.6" fill="#FFFFFF" opacity="0.2"/>
  <circle cx="510" cy="280" r="1.1" fill="#FFFFFF" opacity="0.5"/>
  <circle cx="570" cy="310" r="0.9" fill="#FFFFFF" opacity="0.3"/>
  <circle cx="630" cy="340" r="1.2" fill="#FFFFFF" opacity="0.4"/>
  <circle cx="690" cy="370" r="0.8" fill="#FFFFFF" opacity="0.2"/>
  <circle cx="750" cy="400" r="1.0" fill="#FFFFFF" opacity="0.3"/>
  <circle cx="100" cy="150" r="0.6" fill="#FFFFFF" opacity="0.4"/>
  <circle cx="150" cy="180" r="0.9" fill="#FFFFFF" opacity="0.2"/>
  <circle cx="200" cy="210" r="1.1" fill="#FFFFFF" opacity="0.5"/>
  <circle cx="250" cy="240" r="0.7" fill="#FFFFFF" opacity="0.3"/>
  <circle cx="300" cy="270" r="1.2" fill="#FFFFFF" opacity="0.4"/>
  <circle cx="350" cy="300" r="0.8" fill="#FFFFFF" opacity="0.2"/>
  <circle cx="400" cy="330" r="1.0" fill="#FFFFFF" opacity="0.5"/>
  <circle cx="460" cy="360" r="0.9" fill="#FFFFFF" opacity="0.3"/>
  <circle cx="520" cy="390" r="1.1" fill="#FFFFFF" opacity="0.4"/>
  <circle cx="580" cy="420" r="0.6" fill="#FFFFFF" opacity="0.2"/>
  <circle cx="640" cy="450" r="0.7" fill="#FFFFFF" opacity="0.3"/>
  <circle cx="700" cy="480" r="1.2" fill="#FFFFFF" opacity="0.5"/>
  <circle cx="130" cy="450" r="0.5" fill="#FFFFFF" opacity="0.4"/>
  <circle cx="180" cy="480" r="0.8" fill="#FFFFFF" opacity="0.2"/>
  <circle cx="240" cy="500" r="1.0" fill="#FFFFFF" opacity="0.3"/>
  <circle cx="300" cy="470" r="0.9" fill="#FFFFFF" opacity="0.4"/>
  <circle cx="360" cy="440" r="1.1" fill="#FFFFFF" opacity="0.2"/>
  <circle cx="420" cy="410" r="0.6" fill="#FFFFFF" opacity="0.5"/>
  <circle cx="480" cy="380" r="0.7" fill="#FFFFFF" opacity="0.3"/>
  <circle cx="540" cy="350" r="1.2" fill="#FFFFFF" opacity="0.4"/>
  <circle cx="600" cy="320" r="0.8" fill="#FFFFFF" opacity="0.2"/>
  <circle cx="660" cy="290" r="1.0" fill="#FFFFFF" opacity="0.5"/>
  <circle cx="720" cy="260" r="0.9" fill="#FFFFFF" opacity="0.3"/>
  <circle cx="780" cy="230" r="1.1" fill="#FFFFFF" opacity="0.4"/>
  
  <!-- Constellation: The Wandering Owl -->
  <!-- Principal stars -->
  <circle cx="120" cy="80" r="4" fill="#E8R0F2"/>
  <circle cx="170" cy="110" r="2" fill="#81E6D9"/>
  <circle cx="230" cy="140" r="3" fill="#E8R0F2"/>
  <circle cx="290" cy="160" r="1.5" fill="#4FD1C5"/>
  <circle cx="340" cy="190" r="2" fill="#B0C4DE"/>
  <circle cx="390" cy="220" r="3" fill="#4FD1C5"/>
  
  <!-- Connecting lines -->
  <line x1="120" y1="80" x2="170" y2="110" stroke="#4FD1C5" stroke-width="0.8" opacity="0.4"/>
  <line x1="170" y1="110" x2="230" y2="140" stroke="#4FD1C5" stroke-width="0.8" opacity="0.4"/>
  <line x1="230" y1="140" x2="290" y2="160" stroke="#4FD1C5" stroke-width="0.8" opacity="0.4"/>
  <line x1="290" y1="160" x2="340" y2="190" stroke="#4FD1C5" stroke-width="0.8" opacity="0.4"/>
  <line x1="340" y1="190" x2="390" y2="220" stroke="#4FD1C5" stroke-width="0.8" opacity="0.4"/>
  <line x1="120" y1="80" x2="390" y2="220" stroke="#4FD1C5" stroke-width="0.8" opacity="0.4"/>
  <line x1="170" y1="110" x2="390" y2="220" stroke="#4FD1C5" stroke-width="0.8" opacity="0.4"/>
  <line x1="230" y1="140" x2="390" y2="220" stroke="#4FD1C5" stroke-width="0.8" opacity="0.4"/>
  
  <!-- Star labels -->
  <text x="120" y="75" font-family="monospace" font-size="8" fill="#4FD1C5" opacity="0.85">Vespera</text>
  <text x="170" y="105" font-family="monospace" font-size="8" fill="#4FD1C5" opacity="0.85">Nocturna</text>
  <text x="230" y="135" font-family="monospace" font-size="8" fill="#4FD1C5" opacity="0.85">Lunaris</text>
  <text x="290" y="155" font-family="monospace" font-size="8" fill="#4FD1C5" opacity="0.85">Noctis</text>
  <text x="340" y="185" font-family="monospace" font-size="8" fill="#4FD1C5" opacity="0.85">Stella</text>
  <text x="390" y="215" font-family="monospace" font-size="8" fill="#4FD1C5" opacity="0.85">Aurora</text>
  
  <!-- Constellation name -->
  <text x="400" y="480" font-family="monospace" font-size="11" fill="#607D8B" text-anchor="middle">✦ The Wandering Owl ✦</text>
</svg>